# xmcd
#
# Track frame offsets: 
#        150
#        20303
#        40376
#        59663
#        76564
#        102716
#        140150
#        156358
#        188988
#        214581
#        229637
#        261524
#        282840
#        310122
#        327771
#
# Disc length: 4525 seconds
#
# Revision: 0
# Processed by: cddbd v1.5.2PL0 Copyright (c) Steve Scherf et al.
# Submitted via: ExactAudioCopy v0.95a5
#
DISCID=d811ab0f
DTITLE=Mary Stokes Band - Rockaway BLVD
DYEAR=2007
DGENRE=Blues
TTITLE0=Rockaway BLVD
TTITLE1=Alabama Train
TTITLE2=Play The Blues On The Moon
TTITLE3=Blues For New Orleans
TTITLE4=Bad News
TTITLE5=Dearesy Darlin'
TTITLE6=How Can I Leave
TTITLE7=As The Years Go Passing By
TTITLE8=Crazy About You
TTITLE9=I'm Comming Home
TTITLE10=Backwater Blues
TTITLE11=Just Got Back
TTITLE12=Wish You Would
TTITLE13=Long Way From Home
TTITLE14=Mola Di Bari
EXTD=
EXTT0=
EXTT1=
EXTT2=
EXTT3=
EXTT4=
EXTT5=
EXTT6=
EXTT7=
EXTT8=
EXTT9=
EXTT10=
EXTT11=
EXTT12=
EXTT13=
EXTT14=
PLAYORDER=
